<svg xmlns="http://www.w3.org/2000/svg" viewBox="0 0 120.6 83.53"><defs><style>.cls-1{fill:#349b7e;}.cls-2{fill:#fff;}</style></defs><title>Asset 2</title><g id="Layer_2" data-name="Layer 2"><g id="Layer_1-2" data-name="Layer 1"><path class="cls-1" d="M18,5a6.48,6.48,0,0,1,6.4-5L69.71,0S93.64,1.59,94.19,16.28,72.06,29.49,72.06,29.49s7.11,16.39,10.42,18.7c0,0,3.48,6.84,9.33,7.38l-34.55-.1L43,30.82,34.5,48.22s-2.33,2.42,2.75,6.47l-.35,1L0,56.32S6.4,51,17.37,30c0,0,.67-5.15,10.89-5.19H53s10.77-.36,12.23-8.39-13.93-7-13.93-7L22.86,9.28S17.34,9.55,18,5Z"/><path class="cls-2" d="M2.12,83.53a2,2,0,0,1-2-1.42,1.9,1.9,0,0,1,.23-1.64A2.31,2.31,0,0,1,2,79.57a143.69,143.69,0,0,0,14.05-4C44.42,63,62.5,47.35,63.11,34.66c.2-4.16-.82-7.45-3-9.76-3.39-3.55-8.38-3.65-8.94-3.65-1.76,0-2.95-.4-3.61-1.2a2.17,2.17,0,0,1-.5-1.72c.15-1.55,1.45-2.54,3.46-2.54a5.83,5.83,0,0,1,.8.05c5.89.32,12.77,1.37,12.84,1.38l.1,0c9.76,2.45,16.05,6.44,18.7,11.85a13,13,0,0,1,1.22,7.54l9.11-5,.09-3.54L94.49,27h21.62l.94.51,3.55,5.31-1.14,1.74a14.71,14.71,0,0,0-2.47-.2c-10.66,0-25.83,9.86-29.68,12.48l16.13,23.47,2.69.78.49.29,3.86,3.93-.81,1.93H69l-1.07-1.52c.42-1.18,1.09-1.55,2.42-2.3l1-.56a3.39,3.39,0,0,0,1-.74L65.31,60.38C34.84,81,4.42,83.36,2.59,83.48A2.59,2.59,0,0,1,2.12,83.53Z"/><path class="cls-1" d="M48.15,18.54s-.29,1.59,3,1.57,13.74,1.78,13.13,14.61S46,63.56,16.38,76.63A143.47,143.47,0,0,1,2.15,80.68S1,80.8,1.24,81.81c0,0,.21.76,1.21.55,0,0,31.52-1.69,63.22-23.6l7.68,13.05s.56.83-1.5,2-2.56,1.3-2.9,2.26h40.72l-3.86-3.92-3.08-.9-17-24.72S107,31.24,119.66,33.46l-3.55-5.31H94.49l-.1,4.19-12,6.53S88.74,24.55,64,18.34c0,0-6.87-1.05-12.78-1.37C51.19,17,48.35,16.5,48.15,18.54Z"/></g></g></svg>